# xmcd CD database file
#
# Track frame offsets:
#	151
#	14153
#	29656
#	45759
#	58938
#	80364
#	94515
#	105969
#	124997
#	141102
#	155992
#
# Disc length: 2336 seconds
#
# Revision: 0
# Processed by: cddbd v1.5.2PL0 Copyright (c) Steve Scherf et al.
# Submitted via: CDex 1.79
#
DISCID=90091e0b
DTITLE=Hank Sasaki - Memories In Music
DYEAR=2002
DGENRE=Country
TTITLE0=Cowboy From Japan
TTITLE1=Life Turned Her That Way
TTITLE2=I Love Lucy
TTITLE3=Back On My Mind Again
TTITLE4=Patent Leather Shoes
TTITLE5=We Could
TTITLE6=Midnight Wine
TTITLE7=Hungry Eyes
TTITLE8=Don`t Know Why You Settled Just For Me
TTITLE9=Adios, Sayonara
TTITLE10=What A Friend We Have In Jesus
EXTD=YEAR: 2002
EXTT0=
EXTT1=
EXTT2=
EXTT3=
EXTT4=
EXTT5=
EXTT6=
EXTT7=
EXTT8=
EXTT9=
EXTT10=
PLAYORDER=
